<?xml version="1.0" encoding="UTF-8" standalone="no"?>
<!-- Created with Inkscape (http://www.inkscape.org/) -->

<svg
   xmlns:dc="http://purl.org/dc/elements/1.1/"
   xmlns:cc="http://creativecommons.org/ns#"
   xmlns:rdf="http://www.w3.org/1999/02/22-rdf-syntax-ns#"
   xmlns:svg="http://www.w3.org/2000/svg"
   xmlns="http://www.w3.org/2000/svg"
   xmlns:sodipodi="http://sodipodi.sourceforge.net/DTD/sodipodi-0.dtd"
   xmlns:inkscape="http://www.inkscape.org/namespaces/inkscape"
   width="541.86664mm"
   height="304.79999mm"
   viewBox="0 0 1919.9999 1080"
   id="svg2"
   version="1.1"
   inkscape:version="0.91 r13725"
   sodipodi:docname="bgrfcc.svg">
  <defs
     id="defs4">
    <clipPath
       clipPathUnits="userSpaceOnUse"
       id="clipPath8885">
      <path
         style="fill:none;fill-rule:evenodd;stroke:#000000;stroke-width:10;stroke-linecap:butt;stroke-linejoin:miter;stroke-miterlimit:4;stroke-dasharray:none;stroke-opacity:1"
         d="m -147.85786,628.01906 c -96.49578,87.91126 -1.952,227.75081 -58,334 -59.85126,113.45894 -248.30375,154.31394 -236,282.00004 10.28913,106.7787 149.20811,109.7604 236,110 270.33429,0.7461 582.06906,28.5851 590,-200 3.33105,-96.0073 -76.6986,-21.0303 -116,-106 -65.1631,-140.88292 -0.2999,-358.93021 -126,-450.00004 -87.698304,-63.53748 -209.945149,-42.93296 -290,30 z"
         id="path8887"
         inkscape:connector-curvature="0"
         sodipodi:nodetypes="ssssssss" />
    </clipPath>
    <inkscape:path-effect
       effect="skeletal"
       id="path-effect12323"
       is_visible="true"
       pattern="m -308.26733,-96.965347 c 0,-2.76 2.24,-5.000003 5,-5.000003 2.76,0 5,2.240003 5,5.000003 0,2.76 -2.24,5 -5,5 -2.76,0 -5,-2.24 -5,-5 z"
       copytype="single_stretched"
       prop_scale="1"
       scale_y_rel="false"
       spacing="0"
       normal_offset="0"
       tang_offset="0"
       prop_units="false"
       vertical_pattern="false"
       fuse_tolerance="0" />
    <inkscape:path-effect
       effect="skeletal"
       id="path-effect12319"
       is_visible="true"
       pattern="m -308.26733,-96.965347 c 0,-2.76 2.24,-5.000003 5,-5.000003 2.76,0 5,2.240003 5,5.000003 0,2.76 -2.24,5 -5,5 -2.76,0 -5,-2.24 -5,-5 z"
       copytype="single_stretched"
       prop_scale="1"
       scale_y_rel="false"
       spacing="0"
       normal_offset="0"
       tang_offset="0"
       prop_units="false"
       vertical_pattern="false"
       fuse_tolerance="0" />
    <inkscape:path-effect
       effect="skeletal"
       id="path-effect12315"
       is_visible="true"
       pattern="m -308.26733,-96.965347 c 0,-2.76 2.24,-5.000003 5,-5.000003 2.76,0 5,2.240003 5,5.000003 0,2.76 -2.24,5 -5,5 -2.76,0 -5,-2.24 -5,-5 z"
       copytype="single_stretched"
       prop_scale="1"
       scale_y_rel="false"
       spacing="0"
       normal_offset="0"
       tang_offset="0"
       prop_units="false"
       vertical_pattern="false"
       fuse_tolerance="0" />
    <inkscape:path-effect
       effect="skeletal"
       id="path-effect12311"
       is_visible="true"
       pattern="m -308.26733,-96.965347 c 0,-2.76 2.24,-5.000003 5,-5.000003 2.76,0 5,2.240003 5,5.000003 0,2.76 -2.24,5 -5,5 -2.76,0 -5,-2.24 -5,-5 z"
       copytype="single_stretched"
       prop_scale="1"
       scale_y_rel="false"
       spacing="0"
       normal_offset="0"
       tang_offset="0"
       prop_units="false"
       vertical_pattern="false"
       fuse_tolerance="0" />
    <inkscape:path-effect
       effect="skeletal"
       id="path-effect12307"
       is_visible="true"
       pattern="m -308.26733,-96.965347 c 0,-2.76 2.24,-5.000003 5,-5.000003 2.76,0 5,2.240003 5,5.000003 0,2.76 -2.24,5 -5,5 -2.76,0 -5,-2.24 -5,-5 z"
       copytype="single_stretched"
       prop_scale="1"
       scale_y_rel="false"
       spacing="0"
       normal_offset="0"
       tang_offset="0"
       prop_units="false"
       vertical_pattern="false"
       fuse_tolerance="0" />
    <inkscape:path-effect
       effect="skeletal"
       id="path-effect12303"
       is_visible="true"
       pattern="m -308.26733,-96.965347 c 0,-2.76 2.24,-5.000003 5,-5.000003 2.76,0 5,2.240003 5,5.000003 0,2.76 -2.24,5 -5,5 -2.76,0 -5,-2.24 -5,-5 z"
       copytype="single_stretched"
       prop_scale="1"
       scale_y_rel="false"
       spacing="0"
       normal_offset="0"
       tang_offset="0"
       prop_units="false"
       vertical_pattern="false"
       fuse_tolerance="0" />
    <inkscape:path-effect
       effect="skeletal"
       id="path-effect12299"
       is_visible="true"
       pattern="m -308.26733,-96.965347 c 0,-2.76 2.24,-5.000003 5,-5.000003 2.76,0 5,2.240003 5,5.000003 0,2.76 -2.24,5 -5,5 -2.76,0 -5,-2.24 -5,-5 z"
       copytype="single_stretched"
       prop_scale="1"
       scale_y_rel="false"
       spacing="0"
       normal_offset="0"
       tang_offset="0"
       prop_units="false"
       vertical_pattern="false"
       fuse_tolerance="0" />
    <inkscape:path-effect
       effect="skeletal"
       id="path-effect12295"
       is_visible="true"
       pattern="m -308.26733,-96.965347 c 0,-2.76 2.24,-5.000003 5,-5.000003 2.76,0 5,2.240003 5,5.000003 0,2.76 -2.24,5 -5,5 -2.76,0 -5,-2.24 -5,-5 z"
       copytype="single_stretched"
       prop_scale="1"
       scale_y_rel="false"
       spacing="0"
       normal_offset="0"
       tang_offset="0"
       prop_units="false"
       vertical_pattern="false"
       fuse_tolerance="0" />
    <inkscape:path-effect
       effect="skeletal"
       id="path-effect12291"
       is_visible="true"
       pattern="m -308.26733,-96.965347 c 0,-2.76 2.24,-5.000003 5,-5.000003 2.76,0 5,2.240003 5,5.000003 0,2.76 -2.24,5 -5,5 -2.76,0 -5,-2.24 -5,-5 z"
       copytype="single_stretched"
       prop_scale="1"
       scale_y_rel="false"
       spacing="0"
       normal_offset="0"
       tang_offset="0"
       prop_units="false"
       vertical_pattern="false"
       fuse_tolerance="0" />
    <inkscape:path-effect
       fuse_tolerance="0"
       vertical_pattern="false"
       prop_units="false"
       tang_offset="0"
       normal_offset="0"
       spacing="0"
       scale_y_rel="false"
       prop_scale="1"
       copytype="single_stretched"
       pattern="m -323.68069,-79.180693 c 0,-2.76 2.24,-5 5,-5 2.76,0 5,2.24 5,5 0,2.76 -2.24,5 -5,5 -2.76,0 -5,-2.24 -5,-5 z"
       is_visible="true"
       id="path-effect12287"
       effect="skeletal" />
    <inkscape:path-effect
       fuse_tolerance="0"
       vertical_pattern="false"
       prop_units="false"
       tang_offset="0"
       normal_offset="0"
       spacing="0"
       scale_y_rel="false"
       prop_scale="1"
       copytype="single_stretched"
       pattern="m -323.68069,-79.180693 c 0,-2.76 2.24,-5 5,-5 2.76,0 5,2.24 5,5 0,2.76 -2.24,5 -5,5 -2.76,0 -5,-2.24 -5,-5 z"
       is_visible="true"
       id="path-effect12283"
       effect="skeletal" />
    <inkscape:path-effect
       fuse_tolerance="0"
       vertical_pattern="false"
       prop_units="false"
       tang_offset="0"
       normal_offset="0"
       spacing="0"
       scale_y_rel="false"
       prop_scale="1"
       copytype="single_stretched"
       pattern="m -323.68069,-79.180693 c 0,-2.76 2.24,-5 5,-5 2.76,0 5,2.24 5,5 0,2.76 -2.24,5 -5,5 -2.76,0 -5,-2.24 -5,-5 z"
       is_visible="true"
       id="path-effect12279"
       effect="skeletal" />
    <inkscape:path-effect
       fuse_tolerance="0"
       vertical_pattern="false"
       prop_units="false"
       tang_offset="0"
       normal_offset="0"
       spacing="0"
       scale_y_rel="false"
       prop_scale="1"
       copytype="single_stretched"
       pattern="m -323.68069,-79.180693 c 0,-2.76 2.24,-5 5,-5 2.76,0 5,2.24 5,5 0,2.76 -2.24,5 -5,5 -2.76,0 -5,-2.24 -5,-5 z"
       is_visible="true"
       id="path-effect12275"
       effect="skeletal" />
    <inkscape:path-effect
       fuse_tolerance="0"
       vertical_pattern="false"
       prop_units="false"
       tang_offset="0"
       normal_offset="0"
       spacing="0"
       scale_y_rel="false"
       prop_scale="1"
       copytype="single_stretched"
       pattern="m -323.68069,-79.180693 c 0,-2.76 2.24,-5 5,-5 2.76,0 5,2.24 5,5 0,2.76 -2.24,5 -5,5 -2.76,0 -5,-2.24 -5,-5 z"
       is_visible="true"
       id="path-effect12271"
       effect="skeletal" />
    <inkscape:path-effect
       fuse_tolerance="0"
       vertical_pattern="false"
       prop_units="false"
       tang_offset="0"
       normal_offset="0"
       spacing="0"
       scale_y_rel="false"
       prop_scale="1"
       copytype="single_stretched"
       pattern="m -323.68069,-79.180693 c 0,-2.76 2.24,-5 5,-5 2.76,0 5,2.24 5,5 0,2.76 -2.24,5 -5,5 -2.76,0 -5,-2.24 -5,-5 z"
       is_visible="true"
       id="path-effect12267"
       effect="skeletal" />
    <inkscape:path-effect
       fuse_tolerance="0"
       vertical_pattern="false"
       prop_units="false"
       tang_offset="0"
       normal_offset="0"
       spacing="0"
       scale_y_rel="false"
       prop_scale="1"
       copytype="single_stretched"
       pattern="m -323.68069,-79.180693 c 0,-2.76 2.24,-5 5,-5 2.76,0 5,2.24 5,5 0,2.76 -2.24,5 -5,5 -2.76,0 -5,-2.24 -5,-5 z"
       is_visible="true"
       id="path-effect12263"
       effect="skeletal" />
    <inkscape:path-effect
       fuse_tolerance="0"
       vertical_pattern="false"
       prop_units="false"
       tang_offset="0"
       normal_offset="0"
       spacing="0"
       scale_y_rel="false"
       prop_scale="1"
       copytype="single_stretched"
       pattern="m -323.68069,-79.180693 c 0,-2.76 2.24,-5 5,-5 2.76,0 5,2.24 5,5 0,2.76 -2.24,5 -5,5 -2.76,0 -5,-2.24 -5,-5 z"
       is_visible="true"
       id="path-effect12259"
       effect="skeletal" />
    <inkscape:path-effect
       fuse_tolerance="0"
       vertical_pattern="false"
       prop_units="false"
       tang_offset="0"
       normal_offset="0"
       spacing="0"
       scale_y_rel="false"
       prop_scale="1"
       copytype="single_stretched"
       pattern="m -323.68069,-79.180693 c 0,-2.76 2.24,-5 5,-5 2.76,0 5,2.24 5,5 0,2.76 -2.24,5 -5,5 -2.76,0 -5,-2.24 -5,-5 z"
       is_visible="true"
       id="path-effect12255"
       effect="skeletal" />
    <inkscape:path-effect
       fuse_tolerance="0"
       vertical_pattern="false"
       prop_units="false"
       tang_offset="0"
       normal_offset="0"
       spacing="0"
       scale_y_rel="false"
       prop_scale="1"
       copytype="single_stretched"
       pattern="M 0,5 C 0,2.24 2.24,0 5,0 7.76,0 10,2.24 10,5 10,7.76 7.76,10 5,10 2.24,10 0,7.76 0,5 Z"
       is_visible="true"
       id="path-effect12242"
       effect="skeletal" />
    <inkscape:path-effect
       fuse_tolerance="0"
       vertical_pattern="false"
       prop_units="false"
       tang_offset="0"
       normal_offset="0"
       spacing="0"
       scale_y_rel="false"
       prop_scale="1"
       copytype="single_stretched"
       pattern="M 0,5 C 0,2.24 2.24,0 5,0 7.76,0 10,2.24 10,5 10,7.76 7.76,10 5,10 2.24,10 0,7.76 0,5 Z"
       is_visible="true"
       id="path-effect12188"
       effect="skeletal" />
    <inkscape:path-effect
       fuse_tolerance="0"
       vertical_pattern="false"
       prop_units="false"
       tang_offset="0"
       normal_offset="0"
       spacing="0"
       scale_y_rel="false"
       prop_scale="1"
       copytype="single_stretched"
       pattern="M 0,5 C 0,2.24 2.24,0 5,0 7.76,0 10,2.24 10,5 10,7.76 7.76,10 5,10 2.24,10 0,7.76 0,5 Z"
       is_visible="true"
       id="path-effect12140"
       effect="skeletal" />
    <inkscape:path-effect
       fuse_tolerance="0"
       vertical_pattern="false"
       prop_units="false"
       tang_offset="0"
       normal_offset="0"
       spacing="0"
       scale_y_rel="false"
       prop_scale="1"
       copytype="single_stretched"
       pattern="M 0,5 C 0,2.24 2.24,0 5,0 7.76,0 10,2.24 10,5 10,7.76 7.76,10 5,10 2.24,10 0,7.76 0,5 Z"
       is_visible="true"
       id="path-effect12136"
       effect="skeletal" />
    <inkscape:path-effect
       fuse_tolerance="0"
       vertical_pattern="false"
       prop_units="false"
       tang_offset="0"
       normal_offset="0"
       spacing="0"
       scale_y_rel="false"
       prop_scale="1"
       copytype="single_stretched"
       pattern="m -2.0959415,2.0656819 c 0,-2.76000002 2.23999999,-5 5,-5 2.76,0 5,2.23999998 5,5 0,2.76 -2.24,5 -5,5 -2.76000001,0 -5,-2.24 -5,-5 z"
       is_visible="true"
       id="path-effect12132"
       effect="skeletal" />
    <inkscape:path-effect
       fuse_tolerance="0"
       vertical_pattern="false"
       prop_units="false"
       tang_offset="0"
       normal_offset="0"
       spacing="0"
       scale_y_rel="false"
       prop_scale="1"
       copytype="single_stretched"
       pattern="M 0,5 C 0,2.24 2.24,0 5,0 7.76,0 10,2.24 10,5 10,7.76 7.76,10 5,10 2.24,10 0,7.76 0,5 Z"
       is_visible="true"
       id="path-effect12128"
       effect="skeletal" />
    <inkscape:path-effect
       fuse_tolerance="0"
       vertical_pattern="false"
       prop_units="false"
       tang_offset="0"
       normal_offset="0"
       spacing="0"
       scale_y_rel="false"
       prop_scale="1"
       copytype="single_stretched"
       pattern="M 0,5 C 0,2.24 2.24,0 5,0 7.76,0 10,2.24 10,5 10,7.76 7.76,10 5,10 2.24,10 0,7.76 0,5 Z"
       is_visible="true"
       id="path-effect12124"
       effect="skeletal" />
    <inkscape:path-effect
       fuse_tolerance="0"
       vertical_pattern="false"
       prop_units="false"
       tang_offset="0"
       normal_offset="0"
       spacing="0"
       scale_y_rel="false"
       prop_scale="1"
       copytype="single_stretched"
       pattern="M 0,5 C 0,2.24 2.24,0 5,0 7.76,0 10,2.24 10,5 10,7.76 7.76,10 5,10 2.24,10 0,7.76 0,5 Z"
       is_visible="true"
       id="path-effect12120"
       effect="skeletal" />
    <inkscape:path-effect
       fuse_tolerance="0"
       vertical_pattern="false"
       prop_units="false"
       tang_offset="0"
       normal_offset="0"
       spacing="0"
       scale_y_rel="false"
       prop_scale="1"
       copytype="single_stretched"
       pattern="m 48.611386,-68.509901 c 0,-2.76 2.24,-5 5,-5 2.76,0 5,2.24 5,5 0,2.76 -2.24,5 -5,5 -2.76,0 -5,-2.24 -5,-5 z"
       is_visible="true"
       id="path-effect12116"
       effect="skeletal" />
  </defs>
  <sodipodi:namedview
     id="base"
     pagecolor="#ffffff"
     bordercolor="#666666"
     borderopacity="1.0"
     inkscape:pageopacity="0.0"
     inkscape:pageshadow="2"
     inkscape:zoom="0.25"
     inkscape:cx="467.34902"
     inkscape:cy="377.97966"
     inkscape:document-units="px"
     inkscape:current-layer="layer1"
     showgrid="false"
     showborder="false"
     inkscape:window-width="1680"
     inkscape:window-height="969"
     inkscape:window-x="0"
     inkscape:window-y="24"
     inkscape:window-maximized="1"
     fit-margin-top="0"
     fit-margin-left="0"
     fit-margin-right="0"
     fit-margin-bottom="0" />
  <metadata
     id="metadata7">
    <rdf:RDF>
      <cc:Work
         rdf:about="">
        <dc:format>image/svg+xml</dc:format>
        <dc:type
           rdf:resource="http://purl.org/dc/dcmitype/StillImage" />
        <dc:title></dc:title>
      </cc:Work>
    </rdf:RDF>
  </metadata>
  <g
     inkscape:label="Layer 1"
     inkscape:groupmode="layer"
     id="layer1"
     transform="translate(945.95862,-363.16525)">
    <g
       id="g15045">
      <rect
         y="363.16525"
         x="-945.95862"
         height="1080"
         width="1920"
         id="rect7117"
         style="opacity:1;fill:#ffff00;fill-opacity:1;fill-rule:nonzero;stroke:none;stroke-width:12;stroke-linecap:round;stroke-linejoin:round;stroke-miterlimit:4;stroke-dasharray:none;stroke-opacity:1" />
      <g
         id="g12389"
         transform="matrix(0.85207711,0,0,0.85207711,6.0985184,483.34601)">
        <rect
           y="-1.1028352"
           x="-4.5073222e-08"
           height="987.60767"
           width="980.90063"
           id="rect12378"
           style="fill:#ffff00;fill-opacity:1;fill-rule:nonzero;stroke:#000000;stroke-width:0;stroke-linejoin:round;stroke-miterlimit:4;stroke-dasharray:none;stroke-opacity:1" />
        <path
           inkscape:connector-curvature="0"
           id="path8104"
           d="m 147.88646,542.57404 c -2.08704,3.15186 -1.57593,4.34446 -1.57593,4.34446"
           style="fill:none;fill-rule:evenodd;stroke:#000000;stroke-width:0.20321533px;stroke-linecap:butt;stroke-linejoin:miter;stroke-opacity:1" />
        <path
           inkscape:connector-curvature="0"
           id="path12199"
           d="m 250.88559,332.32173 c 2.10008,-38.21129 9.4187,-74.33814 18.85485,-93.07302 11.93446,-23.69512 44.55173,-61.92069 71.30229,-83.56218 31.85406,-25.77028 69.34176,-44.47536 103.86826,-51.82669 15.74367,-3.35212 42.18163,-2.84537 56.91089,1.09084 37.31002,9.97065 80.02713,32.69116 116.19307,61.80113 14.72012,11.84823 35.66011,33.66481 43.15216,44.95857 16.21198,24.43853 26.75223,58.19614 32.76789,104.94692 1.28283,9.96952 2.32537,18.50615 2.31675,18.9703 -0.008,0.46413 -2.08896,-2.8909 -4.62297,-7.45563 -27.91754,-50.29016 -85.26637,-92.44003 -147.65152,-108.51995 -23.46743,-6.04878 -36.6928,-7.59775 -64.68261,-7.57568 -17.9626,0.0142 -29.69341,0.63251 -39.71906,2.09362 -49.32385,7.18833 -95.10712,24.103 -135.13641,49.92624 -23.32429,15.04671 -38.86608,36.79039 -49.18947,68.81835 -2.10189,6.52104 -4.11229,12.1232 -4.46756,12.44925 -0.35526,0.32606 -0.30872,-5.54288 0.10344,-13.04207 z"
           style="fill:#d40000;fill-opacity:0;fill-rule:nonzero;stroke:none;stroke-width:8;stroke-linejoin:round;stroke-miterlimit:4;stroke-dasharray:none;stroke-opacity:1" />
        <path
           inkscape:connector-curvature="0"
           id="path12201"
           d="m 250.88559,332.32173 c 2.10008,-38.21129 9.4187,-74.33814 18.85485,-93.07302 11.93446,-23.69512 44.55173,-61.92069 71.30229,-83.56218 31.85406,-25.77028 69.34176,-44.47536 103.86826,-51.82669 15.74367,-3.35212 42.18163,-2.84537 56.91089,1.09084 37.31002,9.97065 80.02713,32.69116 116.19307,61.80113 14.72012,11.84823 35.66011,33.66481 43.15216,44.95857 16.21198,24.43853 26.75223,58.19614 32.76789,104.94692 1.28283,9.96952 2.32537,18.50615 2.31675,18.9703 -0.008,0.46413 -2.08896,-2.8909 -4.62297,-7.45563 -27.91754,-50.29016 -85.26637,-92.44003 -147.65152,-108.51995 -23.46743,-6.04878 -36.6928,-7.59775 -64.68261,-7.57568 -17.9626,0.0142 -29.69341,0.63251 -39.71906,2.09362 -49.32385,7.18833 -95.10712,24.103 -135.13641,49.92624 -23.32429,15.04671 -38.86608,36.79039 -49.18947,68.81835 -2.10189,6.52104 -4.11229,12.1232 -4.46756,12.44925 -0.35526,0.32606 -0.30872,-5.54288 0.10344,-13.04207 z"
           style="fill:#d40000;fill-opacity:0;fill-rule:nonzero;stroke:none;stroke-width:8;stroke-linejoin:round;stroke-miterlimit:4;stroke-dasharray:none;stroke-opacity:1" />
        <path
           inkscape:connector-curvature="0"
           id="path12203"
           d="m 250.88559,332.32173 c 2.10008,-38.21129 9.4187,-74.33814 18.85485,-93.07302 11.93446,-23.69512 44.55173,-61.92069 71.30229,-83.56218 31.85406,-25.77028 69.34176,-44.47536 103.86826,-51.82669 15.74367,-3.35212 42.18163,-2.84537 56.91089,1.09084 37.31002,9.97065 80.02713,32.69116 116.19307,61.80113 14.72012,11.84823 35.66011,33.66481 43.15216,44.95857 16.21198,24.43853 26.75223,58.19614 32.76789,104.94692 1.28283,9.96952 2.32537,18.50615 2.31675,18.9703 -0.008,0.46413 -2.08896,-2.8909 -4.62297,-7.45563 -27.91754,-50.29016 -85.26637,-92.44003 -147.65152,-108.51995 -23.46743,-6.04878 -36.6928,-7.59775 -64.68261,-7.57568 -17.9626,0.0142 -29.69341,0.63251 -39.71906,2.09362 -49.32385,7.18833 -95.10712,24.103 -135.13641,49.92624 -23.32429,15.04671 -38.86608,36.79039 -49.18947,68.81835 -2.10189,6.52104 -4.11229,12.1232 -4.46756,12.44925 -0.35526,0.32606 -0.30872,-5.54288 0.10344,-13.04207 z"
           style="fill:#d40000;fill-opacity:0;fill-rule:nonzero;stroke:none;stroke-width:8;stroke-linejoin:round;stroke-miterlimit:4;stroke-dasharray:none;stroke-opacity:1" />
        <path
           inkscape:connector-curvature="0"
           id="path12205"
           d="m 250.88559,332.32173 c 2.10008,-38.21129 9.4187,-74.33814 18.85485,-93.07302 11.93446,-23.69512 44.55173,-61.92069 71.30229,-83.56218 31.85406,-25.77028 69.34176,-44.47536 103.86826,-51.82669 15.74367,-3.35212 42.18163,-2.84537 56.91089,1.09084 37.31002,9.97065 80.02713,32.69116 116.19307,61.80113 14.72012,11.84823 35.66011,33.66481 43.15216,44.95857 16.21198,24.43853 26.75223,58.19614 32.76789,104.94692 1.28283,9.96952 2.32537,18.50615 2.31675,18.9703 -0.008,0.46413 -2.08896,-2.8909 -4.62297,-7.45563 -27.91754,-50.29016 -85.26637,-92.44003 -147.65152,-108.51995 -23.46743,-6.04878 -36.6928,-7.59775 -64.68261,-7.57568 -17.9626,0.0142 -29.69341,0.63251 -39.71906,2.09362 -49.32385,7.18833 -95.10712,24.103 -135.13641,49.92624 -23.32429,15.04671 -38.86608,36.79039 -49.18947,68.81835 -2.10189,6.52104 -4.11229,12.1232 -4.46756,12.44925 -0.35526,0.32606 -0.30872,-5.54288 0.10344,-13.04207 z"
           style="fill:#d40000;fill-opacity:0;fill-rule:nonzero;stroke:none;stroke-width:8;stroke-linejoin:round;stroke-miterlimit:4;stroke-dasharray:none;stroke-opacity:1" />
        <path
           inkscape:connector-curvature="0"
           id="path12207"
           d="m 250.88559,332.32173 c 2.10008,-38.21129 9.4187,-74.33814 18.85485,-93.07302 11.93446,-23.69512 44.55173,-61.92069 71.30229,-83.56218 31.85406,-25.77028 69.34176,-44.47536 103.86826,-51.82669 15.74367,-3.35212 42.18163,-2.84537 56.91089,1.09084 37.31002,9.97065 80.02713,32.69116 116.19307,61.80113 14.72012,11.84823 35.66011,33.66481 43.15216,44.95857 16.21198,24.43853 26.75223,58.19614 32.76789,104.94692 1.28283,9.96952 2.32537,18.50615 2.31675,18.9703 -0.008,0.46413 -2.08896,-2.8909 -4.62297,-7.45563 -27.91754,-50.29016 -85.26637,-92.44003 -147.65152,-108.51995 -23.46743,-6.04878 -36.6928,-7.59775 -64.68261,-7.57568 -17.9626,0.0142 -29.69341,0.63251 -39.71906,2.09362 -49.32385,7.18833 -95.10712,24.103 -135.13641,49.92624 -23.32429,15.04671 -38.86608,36.79039 -49.18947,68.81835 -2.10189,6.52104 -4.11229,12.1232 -4.46756,12.44925 -0.35526,0.32606 -0.30872,-5.54288 0.10344,-13.04207 z"
           style="fill:#d40000;fill-opacity:0;fill-rule:nonzero;stroke:none;stroke-width:8;stroke-linejoin:round;stroke-miterlimit:4;stroke-dasharray:none;stroke-opacity:1" />
        <path
           inkscape:connector-curvature="0"
           id="path12209"
           d="m 250.88559,332.32173 c 2.10008,-38.21129 9.4187,-74.33814 18.85485,-93.07302 11.93446,-23.69512 44.55173,-61.92069 71.30229,-83.56218 31.85406,-25.77028 69.34176,-44.47536 103.86826,-51.82669 15.74367,-3.35212 42.18163,-2.84537 56.91089,1.09084 37.31002,9.97065 80.02713,32.69116 116.19307,61.80113 14.72012,11.84823 35.66011,33.66481 43.15216,44.95857 16.21198,24.43853 26.75223,58.19614 32.76789,104.94692 1.28283,9.96952 2.32537,18.50615 2.31675,18.9703 -0.008,0.46413 -2.08896,-2.8909 -4.62297,-7.45563 -27.91754,-50.29016 -85.26637,-92.44003 -147.65152,-108.51995 -23.46743,-6.04878 -36.6928,-7.59775 -64.68261,-7.57568 -17.9626,0.0142 -29.69341,0.63251 -39.71906,2.09362 -49.32385,7.18833 -95.10712,24.103 -135.13641,49.92624 -23.32429,15.04671 -38.86608,36.79039 -49.18947,68.81835 -2.10189,6.52104 -4.11229,12.1232 -4.46756,12.44925 -0.35526,0.32606 -0.30872,-5.54288 0.10344,-13.04207 z"
           style="fill:#d40000;fill-opacity:0;fill-rule:nonzero;stroke:none;stroke-width:8;stroke-linejoin:round;stroke-miterlimit:4;stroke-dasharray:none;stroke-opacity:1" />
        <path
           inkscape:connector-curvature="0"
           id="path12211"
           d="m 250.88559,332.32173 c 2.10008,-38.21129 9.4187,-74.33814 18.85485,-93.07302 11.93446,-23.69512 44.55173,-61.92069 71.30229,-83.56218 31.85406,-25.77028 69.34176,-44.47536 103.86826,-51.82669 15.74367,-3.35212 42.18163,-2.84537 56.91089,1.09084 37.31002,9.97065 80.02713,32.69116 116.19307,61.80113 14.72012,11.84823 35.66011,33.66481 43.15216,44.95857 16.21198,24.43853 26.75223,58.19614 32.76789,104.94692 1.28283,9.96952 2.32537,18.50615 2.31675,18.9703 -0.008,0.46413 -2.08896,-2.8909 -4.62297,-7.45563 -27.91754,-50.29016 -85.26637,-92.44003 -147.65152,-108.51995 -23.46743,-6.04878 -36.6928,-7.59775 -64.68261,-7.57568 -17.9626,0.0142 -29.69341,0.63251 -39.71906,2.09362 -49.32385,7.18833 -95.10712,24.103 -135.13641,49.92624 -23.32429,15.04671 -38.86608,36.79039 -49.18947,68.81835 -2.10189,6.52104 -4.11229,12.1232 -4.46756,12.44925 -0.35526,0.32606 -0.30872,-5.54288 0.10344,-13.04207 z"
           style="fill:#d40000;fill-opacity:0;fill-rule:nonzero;stroke:none;stroke-width:8;stroke-linejoin:round;stroke-miterlimit:4;stroke-dasharray:none;stroke-opacity:1" />
        <path
           inkscape:connector-curvature="0"
           id="path12213"
           d="m 427.94967,845.63953 c -16.28627,-2.48663 -30.36543,-14.52875 -67.65025,-57.86233 -13.26503,-15.41703 -33.25681,-37.48452 -44.42616,-49.03885 -29.35657,-30.36843 -40.28815,-46.0622 -47.53781,-68.24702 -5.26127,-16.10012 -6.41919,-27.76454 -5.55274,-55.93646 0.41199,-13.39562 1.07637,-42.10443 1.47641,-63.79738 0.66592,-36.11136 0.56456,-39.37924 -1.20043,-38.70196 -3.6475,1.39968 -7.56418,-0.54523 -8.91784,-4.42834 -0.71726,-2.05754 -1.30412,-8.71921 -1.30412,-14.8037 0,-12.27319 2.22653,-20.01378 6.11152,-21.24683 2.08653,-0.66224 2.2514,-1.44953 1.56109,-7.45498 -0.4245,-3.69301 -2.84183,-16.31827 -5.37186,-28.05614 -7.86583,-36.49294 -8.61072,-43.53278 -8.59355,-81.21659 0.0277,-60.83865 6.70724,-100.02486 21.37565,-125.40296 25.45922,-44.04749 68.83271,-86.34283 113.55948,-110.7367 40.94372,-22.330596 82.83552,-31.134021 115.60025,-24.29301 60.4902,12.62987 140.46455,64.61647 172.83382,112.34905 5.86061,8.64222 13.89484,25.48317 18.56341,38.91172 12.02516,34.58882 17.86776,73.37313 19.25913,127.84579 l 0.76467,29.9375 -4.76406,0 -4.76406,0 -1.11103,-6.22463 -1.11103,-6.22463 -3.36313,10.67079 c -3.05807,9.70288 -6.51472,29.48122 -6.57906,37.64419 -0.0222,2.80749 0.44835,3.26052 3.38607,3.26052 5.59778,0 6.45457,2.22463 5.83247,15.14378 -0.60658,12.59684 -1.35782,14.68999 -7.86003,21.9001 l -4.34831,4.82171 0.30599,22.63961 c 0.1683,12.45178 1.11309,32.77685 2.09954,45.16683 3.32926,41.81597 4.00141,58.57229 2.89436,72.15456 -2.56517,31.47163 -13.61134,57.17344 -36.79177,85.60566 -3.75279,4.60303 -16.07617,17.94152 -27.3853,29.64109 -12.26761,12.69116 -30.21669,33.27028 -44.4961,51.01603 -26.88933,33.41676 -39.17297,45.85568 -51.06916,51.71466 l -7.93405,3.9076 -43.30432,0.19614 c -23.81739,0.1079 -46.40185,-0.2768 -50.18769,-0.85482 z m 98.30873,-11.20936 c 10.07735,-4.92971 23.37555,-18.83588 50.44334,-52.74953 14.8031,-18.54703 31.10036,-37.24887 45.08107,-51.73255 30.50004,-31.59731 43.1476,-49.09745 50.83253,-70.33578 8.51889,-23.54307 9.79496,-43.16717 5.96461,-91.72674 -1.37955,-17.48934 -2.85045,-41.632 -3.26866,-53.65037 -0.58859,-16.91475 -1.11365,-21.85159 -2.32405,-21.85159 -2.97679,0 -5.23694,5.65406 -8.6906,21.74064 -5.33146,24.83319 -9.49391,32.22993 -20.09258,35.70496 -40.13036,13.15772 -100.71806,15.70537 -124.59753,5.23921 -10.49669,-4.60061 -16.15694,-12.17148 -26.70001,-35.71263 -8.18592,-18.27794 -13.15044,-24.47853 -20.35771,-25.42632 -6.93076,-0.91144 -10.35515,0.21395 -15.90338,5.22644 -6.2003,5.60159 -8.94857,11.28166 -15.83308,32.72342 -6.24052,19.43601 -10.01454,25.72896 -18.1186,30.21164 -7.7755,4.30093 -26.51468,8.46079 -45.00666,9.99091 -28.1796,2.33171 -71.7737,-2.01447 -82.5074,-8.22571 -5.98413,-3.46282 -11.14477,-12.40553 -15.84829,-27.463 -3.64395,-11.66549 -8.02714,-22.66794 -9.03052,-22.66799 -0.14978,-10e-6 -0.27595,13.47186 -0.28039,29.9375 -0.004,16.46564 -0.27121,46.47724 -0.59282,66.69246 -0.6455,40.57361 -0.24498,44.14366 7.0848,63.15041 7.56578,19.61873 18.08274,33.56938 49.81923,66.08474 12.09318,12.38998 28.89423,30.53032 37.33566,40.31188 25.43018,29.46739 33.99387,38.57596 43.11932,45.8628 10.67344,8.52296 14.40244,10.50455 22.07228,11.72922 3.28573,0.52464 24.97358,0.81847 48.19523,0.65295 l 42.22118,-0.30096 6.98303,-3.41601 z m -242.00211,-368.29004 16.59901,-2.54452 8.42304,-8.70745 c 6.05028,-6.25455 10.55923,-9.7018 16.00619,-12.23727 14.70102,-6.84308 24.69977,-8.30384 73.38636,-10.72134 21.52862,-1.06899 29.91589,-2.13747 41.79394,-5.32427 3.15534,-0.84657 3.26052,-0.72331 3.26052,3.82099 0,11.47995 -14.81067,21.44678 -38.53342,25.93105 -4.17155,0.78853 -3.38639,1.0098 6.52104,1.83765 7.81997,0.65343 15.25098,2.2676 24.30569,5.27972 10.43381,3.47089 15.42999,4.45349 24.98226,4.91326 14.72991,0.70898 21.46456,-1.02962 35.77649,-9.23593 5.60584,-3.21433 13.02376,-6.66732 16.48426,-7.67332 19.96456,-5.80385 70.55566,-8.71862 115.18948,-6.63653 16.75767,0.78172 33.93651,1.68895 38.17519,2.01608 4.23867,0.32712 8.38808,0.12631 9.22091,-0.44627 0.9172,-0.63056 2.21507,-7.08286 3.2917,-16.36452 2.07296,-17.87096 1.25205,-14.20752 8.31012,-37.08531 l 5.61642,-18.20487 -2.07378,-6.69364 c -3.42366,-11.0508 -12.98667,-29.74731 -20.87617,-40.81474 -9.20124,-12.90757 -27.24085,-30.37923 -40.38303,-39.11169 -25.59883,-17.00938 -60.92865,-29.03955 -101.82647,-34.67298 -19.35944,-2.66664 -62.28489,-3.61464 -83.15341,-1.83641 -66.48699,5.66543 -121.80517,26.42821 -150.28051,56.40533 -14.06693,14.80882 -27.095,36.50402 -35.58895,59.26506 -4.3674,11.7032 -4.7805,9.27071 -0.60966,-3.58982 6.84744,-21.11364 20.82682,-45.40415 34.42828,-59.82242 23.90057,-25.33585 70.44389,-46.30322 122.01616,-54.96723 47.66688,-8.0079 100.69245,-7.1365 144.01482,2.36671 43.85338,9.6197 75.07761,25.5966 101.5768,51.97512 15.85897,15.78674 11.74215,8.8435 -5.40317,-9.11276 -37.4608,-39.2326 -86.16219,-64.33679 -141.34211,-72.85786 -16.38221,-2.52979 -53.85781,-2.81896 -71.61741,-0.55261 -47.92096,6.1153 -91.69212,21.09608 -131.56411,45.02811 -16.1752,9.7087 -27.49965,20.2984 -36.74994,34.36553 -3.88658,5.91043 -7.29186,10.52089 -7.56728,10.24548 -1.36189,-1.36189 10.93532,-19.86571 18.70479,-28.14541 11.32472,-12.06842 27.87501,-23.07934 54.02555,-35.9432 64.63708,-31.79601 139.08831,-41.69514 200.50223,-26.65903 19.25775,4.71492 32.65701,9.56049 50.85421,18.39043 44.89785,21.78605 82.84664,56.9518 102.69431,95.16307 l 4.78768,9.21738 -0.80746,-10.07797 c -4.21341,-52.5874 -18.55436,-99.91316 -38.26347,-126.27104 -34.49694,-46.13435 -112.714,-94.85453 -167.74006,-104.48267 -33.44464,-5.851938 -80.81547,6.66394 -120.83294,31.92535 -40.42466,25.51845 -83.84509,70.7863 -101.43935,105.75534 -9.58344,19.0473 -16.32568,53.12164 -19.12006,96.62995 -1.09606,17.06573 -0.48975,52.15847 0.90153,52.17904 0.39917,0.006 0.80253,3.87406 0.89637,8.59592 0.11162,5.61689 2.06252,16.46527 5.64256,31.37668 3.00958,12.53534 6.09632,26.80752 6.85942,31.71597 0.7631,4.90845 1.95872,8.9276 2.65693,8.93143 0.69822,0.004 8.73904,-1.13808 17.8685,-2.53757 z m 67.19063,-7.69396 c 12.59217,-0.66653 15.10237,-1.07107 12.35029,-1.99037 -4.17403,-1.3943 -30.47583,0.75864 -33.59788,2.75016 -1.7035,1.08665 -1.40244,1.21175 1.68447,0.69995 2.06728,-0.34275 10.87068,-0.99964 19.56312,-1.45974 z"
           style="fill:#d40000;fill-opacity:0;fill-rule:nonzero;stroke:none;stroke-width:8;stroke-linejoin:round;stroke-miterlimit:4;stroke-dasharray:none;stroke-opacity:1" />
        <path
           sodipodi:nodetypes="ssccssccssas"
           inkscape:connector-curvature="0"
           inkscape:original-d="m 280.07917,396.24236 c -6.60579,19.12212 -7.25954,14.15562 -4.74257,34.15695 2.42972,19.30793 9.74539,37.90239 12.15286,57.21289 21.75892,151.66677 -33.64902,180.49573 57.80011,264.43168 44.94205,41.77159 79.97446,97.42165 109.07921,99.62442 39.43782,2.98483 42.31485,0.57296 85.94171,0.19534 31.40697,-0.27186 60.80082,-59.23776 107.39522,-102.25178 107.52652,-99.5301 39.45518,-133.44314 61.57644,-298.71838 1.22077,-24.18079 12.58166,-30.9077 3.55693,-53.51255 -24.0401,-60.21485 -66.13726,-97.44621 -143.46288,-113.85648 -76.13643,-16.1579 -168.85303,-4.80634 -235.94307,36.43407 -26.86489,16.51392 -44.55308,50.80749 -53.35396,76.28384 z"
           inkscape:path-effect="#path-effect12140"
           id="path12138"
           d="m 280.07917,396.24236 c 0.29838,0.10307 -0.75395,3.83215 -3.11039,10.88073 -0.56425,1.69699 -1.3531,3.95514 -1.66906,6.05529 -0.29105,1.85209 -0.23013,3.79418 -0.0189,6.0494 0.34608,3.59696 0.85847,6.68566 1.48635,10.99149 0,0 1e-5,1e-5 1e-5,1e-5 1.29315,8.86368 3.42838,16.90957 6.52413,28.30528 2.23282,8.18897 5.076,18.51025 6.48234,28.78143 4.05693,26.14351 6.96501,57.8689 6.22377,93.89249 -0.23579,11.45426 -0.79044,22.57865 -1.37748,34.78552 -0.45144,9.42789 -0.92619,19.41596 -0.78548,29.21391 0.12511,8.44812 0.71614,17.11393 2.37805,25.58892 1.60364,8.21683 4.26122,16.39256 8.01601,24.20147 4.24919,8.86176 9.85506,17.24396 16.34732,25.31353 8.1273,10.09374 17.43067,19.44984 27.5495,28.67181 11.19341,10.32705 21.6978,21.38291 32.30012,33.0332 9.10162,9.99812 19.1794,21.51733 28.62943,31.63711 7.87907,8.41669 16.00375,16.87217 25.09598,23.7626 3.53582,2.67348 7.16998,5.10495 10.99462,6.88745 3.17427,1.4595 6.41565,2.54617 9.57401,2.74021 13.48264,0.98519 27.2224,1.63025 40.93101,1.25547 14.3131,-0.38635 29.76957,-1.09212 44.61825,-1.24642 3.22822,-0.003 6.57626,-0.90871 9.80732,-2.31459 0,-10e-6 6e-5,-2e-5 6e-5,-2e-5 3.72007,-1.6285 7.24868,-4.01183 10.69992,-6.72261 8.68861,-6.84365 16.16208,-15.43476 23.7952,-24.41458 11.47512,-13.55526 15.56942,-19.16162 27.33445,-33.09191 10.02646,-11.87892 20.67154,-23.68241 32.41819,-34.54609 11.41559,-10.58774 22.43002,-21.79363 32.06324,-34.06358 4.71157,-6.00622 9.10266,-12.27693 12.93461,-18.83536 2.08911,-3.57554 4.00514,-7.22477 5.71495,-10.95338 4.11231,-8.9395 7.01989,-18.38712 8.64902,-27.99931 0,0 0,-7e-5 0,-7e-5 1.62678,-9.52879 2.03224,-19.31863 1.85541,-29.09743 -0.20259,-10.87896 -1.12218,-21.86239 -2.0526,-32.78091 -1.1091,-12.9688 -2.23329,-25.7292 -2.95529,-38.64658 -1.97652,-35.23363 -0.52598,-69.79592 3.99846,-103.12043 0.28786,-5.48568 1.16023,-10.87899 2.48747,-16.0971 0,0 2e-5,-6e-5 2e-5,-6e-5 1.14673,-4.53839 2.28751,-7.87068 3.30288,-11.94737 0.86623,-3.54211 1.41464,-7.01588 1.25125,-10.32651 -0.14416,-4.28981 -1.38529,-8.67215 -3.06161,-12.97679 -5.6926,-14.33805 -12.61071,-27.83368 -21.07897,-40.01208 -8.35285,-12.02347 -18.19586,-22.69533 -29.12633,-31.6522 -11.98549,-9.83496 -25.32061,-17.66123 -38.99388,-23.794 -16.55949,-7.42831 -33.86625,-12.51613 -50.77164,-16.18987 -42.58117,-9.24447 -83.98905,-8.90765 -120.0448,-3.91563 -47.64726,6.62583 -85.18964,21.20944 -113.84988,38.38717 -15.25601,9.08907 -26.20859,23.1246 -33.28153,33.69579 -16.62001,24.90016 -19.80868,41.12478 -21.28552,40.6146 0.41099,0.14198 2.48361,-16.46152 18.52044,-42.39107 6.81874,-11.05195 17.66184,-25.76705 33.62043,-35.86622 28.77414,-18.12683 66.90386,-33.75617 115.3084,-41.09563 36.64542,-5.57844 78.90876,-6.38309 122.68307,2.69904 17.3436,3.59466 35.22823,8.70734 52.5427,16.301 14.31387,6.27861 28.35527,14.40185 41.1188,24.71816 11.63469,9.41629 22.11074,20.62996 31.00425,33.28668 8.99267,12.80885 16.32201,26.89199 22.28918,41.75896 2.00317,4.91163 3.48699,10.30121 3.78481,16.01788 0.18242,4.51872 -0.43709,8.8908 -1.46797,13.00942 -1.56548,6.35425 -1.79085,6.03491 -3.25837,11.97942 0,-1e-5 -2e-5,5e-5 -2e-5,5e-5 -1.18085,4.81726 -1.9541,9.73611 -2.1923,14.6705 -4.33447,32.8633 -5.66959,66.94495 -3.66716,101.68721 0.73511,12.70801 1.87536,25.36605 3.00492,38.35337 0.95415,10.93225 1.8997,22.13152 2.13031,33.43873 0.21312,10.19174 -0.22908,20.59963 -1.9684,30.95848 0,0 -10e-6,7e-5 -10e-6,7e-5 -1.7715,10.47949 -4.93203,20.76461 -9.41101,30.50982 -1.8638,4.04344 -3.93063,7.98002 -6.16732,11.81512 -4.10281,7.03481 -8.75186,13.68472 -13.70882,19.97506 -10.10651,12.83534 -21.48408,24.41756 -33.15758,35.20184 -11.32305,10.43332 -21.7068,21.93213 -31.62364,33.62422 -10.99725,12.97379 -16.40484,20.10525 -27.40952,33.04619 -7.68206,9.07043 -15.65282,18.09698 -25.25349,25.69521 -3.84716,3.0523 -8.08409,5.84482 -12.81448,7.94789 0,0 -8e-5,10e-6 -8e-5,10e-6 -4.1816,1.8674 -8.80864,3.03328 -13.6341,3.10025 -14.60436,0.10066 -30.03738,0.74916 -44.46524,1.08008 -14.17582,0.32109 -28.22182,-0.3936 -41.86892,-1.46171 -4.65366,-0.39721 -8.97355,-1.79189 -12.82583,-3.65956 -4.62283,-2.21749 -8.79116,-5.00389 -12.60998,-7.95574 -9.78092,-7.54505 -18.22443,-16.38306 -26.10082,-24.94224 -9.55049,-10.3527 -19.53386,-21.91325 -28.50636,-31.90605 -10.44418,-11.62811 -20.67974,-22.57125 -31.52126,-32.72468 -10.24552,-9.46929 -19.75611,-19.21671 -28.1446,-29.80897 -6.72523,-8.48532 -12.57157,-17.44431 -17.06163,-27.00527 -3.96476,-8.46424 -6.73069,-17.28293 -8.35837,-26.12593 -1.66666,-9.09843 -2.19735,-18.19509 -2.2123,-26.91766 -0.0215,-10.09854 0.58029,-20.2112 1.15763,-29.64244 0.74588,-12.22625 1.44918,-23.24413 1.84852,-34.59122 1.25393,-35.62006 -1.05168,-67.08855 -4.47779,-93.10422 -1.10662,-9.88226 -3.66576,-20.18786 -5.65383,-28.43339 -2.76429,-11.41911 -4.68228,-19.85177 -5.64542,-28.90568 0,0 0,-2e-5 0,-2e-5 -0.45007,-4.25382 -0.83801,-7.51501 -1.01316,-11.18056 -0.11907,-2.35705 -0.0546,-4.51451 0.38113,-6.59487 0.50693,-2.34742 1.45863,-4.60328 2.15199,-6.2593 2.85302,-6.84687 4.42154,-10.38226 4.6532,-10.30223 z"
           style="fill:#000000;fill-rule:evenodd;stroke:none;stroke-width:1px;stroke-linecap:butt;stroke-linejoin:miter;stroke-opacity:1" />
        <path
           sodipodi:nodetypes="sssscss"
           inkscape:connector-curvature="0"
           id="path12108"
           d="m 520.17199,466.83339 c -17.25079,-9.47475 -19.60485,-33.97155 -19.56311,-54.08183 0.0151,-7.25074 5.3791,9.40992 16.59901,14.80134 39.7807,19.11551 92.6236,-21.08968 133.3849,-3.98498 16.55711,6.94787 35.5693,39.28049 35.5693,39.28049 0,0 -24.02473,-18.3286 -38.53341,-20.49417 -42.81287,-6.39025 -89.84676,45.13587 -127.45669,24.47915 z"
           style="fill:#000000;fill-rule:evenodd;stroke:#000000;stroke-width:0.97994524px;stroke-linecap:butt;stroke-linejoin:miter;stroke-opacity:1" />
        <path
           sodipodi:nodetypes="ssscsss"
           inkscape:connector-curvature="0"
           id="path12110"
           d="m 469.18934,451.46275 c -8.6223,2.71369 -17.3142,4.30547 -25.99696,5.27472 -33.71647,3.76377 -67.29502,-1.85926 -96.12434,12.37305 -11.82196,5.83621 -25.49134,26.18698 -25.49134,26.18698 0,0 25.8871,-9.51411 35.56931,-11.38565 38.59926,-7.46111 68.95853,8.32252 103.151,-12.52421 13.59069,-8.28606 8.89233,-19.92489 8.89233,-19.92489 z"
           style="fill:#000000;fill-rule:evenodd;stroke:#000000;stroke-width:0.97994524px;stroke-linecap:butt;stroke-linejoin:miter;stroke-opacity:1" />
        <path
           sodipodi:nodetypes="ssssssssssssssssssss"
           inkscape:connector-curvature="0"
           id="path7106"
           d="m 283.5954,500.52394 c -3.77604,8.29517 -3.0405,22.64757 -1.25757,29.38568 1.42784,5.39616 9.57102,-1.69038 14.25241,2.8178 11.4384,11.01519 9.82438,38.35545 24.31292,48.70776 8.52714,6.0928 85.06559,16.74312 126.17568,-1.40891 16.84353,-7.4372 15.23815,-47.67132 33.11588,-60.78405 7.92701,-5.8142 15.37736,-7.86099 24.10332,-3.22034 15.08521,8.0226 19.12174,40.89528 34.58304,53.33699 17.82724,14.3456 82.46389,13.36342 130.99634,-1.61017 16.92175,-5.22081 13.67264,-37.62414 22.63617,-52.12938 1.62606,-2.63136 5.55259,-2.02605 7.96458,-4.02543 6.73301,-5.5812 15.08774,-14.06046 16.13875,-17.91319 1.54001,-5.64527 1.38072,-13.22724 1.25757,-20.73099 -0.0929,-5.6604 -16.35782,4.04653 -22.21699,3.42162 -48.83137,-5.20808 -138.1794,-5.06488 -163.48344,6.03816 -12.4999,5.48477 -10.98452,7.52619 -23.05535,11.67376 -10.83924,3.7244 -19.12763,2.923 -30.60075,2.01272 -11.82274,-0.93802 -22.58224,-7.60431 -34.37344,-8.85596 -39.75563,-4.22009 -80.23478,-0.20126 -119.88786,4.83052 -13.91334,1.76554 -39.13033,5.09029 -40.66126,8.45341 z"
           style="fill:#ff00ff;fill-opacity:1;fill-rule:evenodd;stroke:#ff00ff;stroke-width:7.83956194;stroke-linecap:butt;stroke-linejoin:miter;stroke-miterlimit:4;stroke-dasharray:none;stroke-opacity:1" />
        <path
           sodipodi:nodetypes="cssssssssc"
           inkscape:connector-curvature="0"
           inkscape:original-d="m 453.99544,582.039 c 0,0 -20.84093,13.45935 -22.63616,24.15261 -1.77264,10.55867 4.72346,36.07416 13.41402,29.38567 6.42763,-4.94689 -1.0277,-14.00215 4.19188,-16.90683 11.9736,-6.66328 25.98792,10.95636 39.82289,11.27122 17.68557,0.4025 37.25335,-22.06844 51.56016,-12.0763 6.11887,4.27353 -5.67043,20.00242 1.67676,21.73734 11.82273,2.79174 20.25583,-18.13414 19.28266,-29.78821 -0.79957,-9.57518 -14.01642,-13.83385 -19.70185,-21.73735 -4.86785,-6.76696 -12.15646,-21.73735 -12.15646,-21.73735"
           inkscape:path-effect="#path-effect12124"
           id="path12122"
           d="m 453.99541,582.03902 c 0.44007,0.58065 -2.94982,4.01873 -9.36835,9.66477 0,0 0,10e-6 0,10e-6 -2.08878,2.10449 -4.71617,4.85569 -6.86213,7.89564 -1.51031,2.22529 -3.16162,4.76265 -3.31634,7.11082 -0.35225,2.71877 -0.0256,5.61806 0.50769,9.01193 0.57167,3.38692 1.44824,6.91466 2.80295,10.31836 1.13782,2.5842 2.1599,5.10315 3.72576,6.21358 0.44375,0.23873 0.63785,0.43986 0.46599,0.27327 0,0 0,0 0,0 -0.2472,0.10294 -0.14968,-0.10503 0.24497,-0.29894 0.50539,-0.40307 0.90066,-1.10921 0.95001,-1.73899 0.181,-0.80619 -0.0282,-1.99421 -0.2071,-3.58044 -0.23189,-1.30696 -0.54042,-3.15579 -0.39739,-5.52099 0.20317,-2.55795 1.61679,-4.99379 4.2094,-6.6966 3.96391,-2.13059 8.43826,-2.62976 12.56606,-1.68585 4.20303,0.95207 7.8377,2.67626 11.13167,4.45362 3.42864,1.79551 6.81913,3.77082 10.01705,5.20755 2.98745,1.28003 5.86194,2.36493 8.43517,2.32062 3.52733,0.15297 7.36079,-1.14175 11.47123,-2.7792 1.85772,-0.77231 3.72074,-1.65048 5.62814,-2.5882 2.55894,-1.25805 4.97738,-2.51126 7.65385,-3.80325 4.26311,-2.11734 8.93109,-4.15903 14.26664,-5.10152 2.42576,-0.42131 5.02598,-0.47892 7.68502,-0.0225 2.75986,0.50999 5.32132,1.61283 7.53244,3.17802 1.64349,1.20789 2.77701,2.78844 3.34564,4.56615 0.52336,1.80347 0.6303,3.39206 0.4926,4.68168 l 0,0 c -0.26237,3.08494 -1.02331,5.6808 -1.65575,7.80757 l 0,0 c -0.56932,2.27107 -1.19445,3.9091 -1.11234,5.08732 l 0,0 c 0.10943,0.33935 -0.0362,0.29227 -0.2103,-0.20382 -0.54829,-0.53869 -0.75879,-0.77254 -0.91035,-0.70714 l 0,0 c 1.21499,0.47676 3.01453,-0.0769 4.451,-0.99019 l 0,0 c 2.01134,-1.28803 3.64826,-3.59482 5.13268,-6.05971 l 0,0 c 1.67673,-2.90531 2.88091,-6.05746 3.7154,-9.21302 l 0,0 c 0.78661,-3.10137 1.2573,-5.98952 1.09621,-8.70572 l 0,0 c 0.004,-1.43944 -0.71724,-3.01613 -1.67199,-4.42437 l 0,0 c -1.16076,-1.68147 -2.88714,-3.22885 -4.62212,-4.73121 -2.41498,-2.05789 -3.77263,-3.03118 -6.15794,-5.12097 l 0,0 c -2.15744,-1.86585 -4.09307,-3.85203 -5.64566,-6.18279 l 0,0 c -3.33331,-5.15081 -5.8154,-10.88398 -7.20089,-14.18189 l 0,0 c -1.10405,-2.61746 -1.89286,-4.75011 -2.35937,-6.26858 l 0,0 c -0.26069,-0.84853 -0.42496,-1.51812 -0.49232,-1.99956 l 0,0 c -0.0351,-0.25111 -0.0439,-0.4508 -0.026,-0.59795 l 0,0 0,0 c 0.009,-0.0751 0.025,-0.13636 0.048,-0.18379 l 0,0 c 0.0492,-0.0422 0.073,-0.0677 0.0845,-0.0828 0.0112,-0.0147 0.0105,-0.0195 0.0103,-0.0202 0,0 0,0 0,0 0,0 0,0 0,0 0,0 0,0 0,0 0,0 0,0 0,0 0,0 0,0 0,0 0,0 0,0 0,0 -10e-6,-6e-5 -10e-6,-5e-5 -10e-6,-5e-5 0,0 0,-10e-6 3e-5,4e-5 0,0 0,0 0,0 0,0 0,0 0,0 0,0 0,0 0,0 0,0 0,0 0,0 0,0 0,0 0,0 0,0 0,0 0,0 4e-4,5.6e-4 0.004,0.004 0.0222,0.004 0.0189,2.4e-4 0.0536,-0.003 0.11724,-0.0156 l 0,0 c 0.0514,0.0109 0.10959,0.0357 0.17429,0.0742 l 0,0 0,0 c 0.12696,0.0755 0.27953,0.20374 0.45711,0.38317 l 0,0 c 0.34037,0.34391 0.77348,0.87652 1.29701,1.58662 l 0,0 c 0.95548,1.29598 2.17072,3.12425 3.71729,5.50417 l 0,0 c 1.76192,2.70872 5.33352,8.5554 8.59185,12.6031 l 0,0 c 1.29216,1.62257 2.9928,3.01322 5.08337,4.5857 l 0,0 c 3.66313,2.71325 2.41241,1.60245 6.47927,4.59413 l 0,0 c 2.00293,1.44936 4.22132,3.24099 6.18291,5.61078 l 0,0 c 1.78136,2.14225 3.16106,4.93699 3.56044,8.22475 l 0,0 c 0.38104,3.7778 0.0269,7.54873 -0.78336,11.22139 l 0,0 c -0.80844,3.81428 -2.12288,7.71878 -4.09076,11.48244 l 0,0 c -1.61904,3.21412 -3.98335,6.55523 -7.47195,9.21857 -3.13845,2.37343 -7.35643,3.55029 -11.82396,2.68538 -1.67765,-0.29528 -3.36108,-1.35544 -4.7714,-3.22085 -1.03846,-1.83403 -1.43461,-3.47885 -1.35149,-4.74494 l 0,0 c 0.0246,-3.15097 0.70956,-5.69571 1.2919,-7.69123 0.56825,-2.32194 1.18112,-4.31509 1.20912,-5.92296 l 0,0 c -0.0191,-0.62922 0.01,-1.01261 -0.0728,-1.04941 0.0207,0.11483 0.0927,0.18819 0.29068,0.38647 -1.10496,-0.75082 -2.37988,-1.28434 -3.66298,-1.48883 l 0,0 c -1.28102,-0.23985 -2.75671,-0.15239 -4.32941,0.10056 -3.65892,0.57418 -7.39072,2.35311 -11.5496,4.32637 -3.16964,1.54959 -4.26556,2.16131 -7.61178,3.79963 -2.00961,0.98391 -4.06064,1.94403 -6.1895,2.83293 -4.62631,2.00311 -9.84788,3.52226 -15.53973,3.46532 -4.70875,-0.21028 -8.84952,-1.64048 -12.31517,-3.34135 -3.79085,-1.79169 -7.30097,-3.90024 -10.45153,-5.6353 -3.16158,-1.68691 -5.92357,-3.17517 -8.6389,-3.77244 -2.25422,-0.48532 -4.54394,-0.43327 -6.09023,0.50259 0.30592,-0.42887 0.36116,-0.3554 0.30318,-0.35371 -0.1629,0.65489 0.0838,1.86417 0.22299,3.51129 0.23662,1.71967 0.35709,3.81817 -0.0398,6.21767 -0.57187,2.81825 -2.12004,5.22603 -4.31526,6.90139 -1.441,1.21412 -3.53534,1.94706 -6.04349,1.88253 0,0 -2e-5,-10e-6 -2e-5,-10e-6 -2.34609,-0.33831 -4.11878,-1.28968 -5.26862,-2.47817 -3.1223,-3.09463 -4.634,-6.69065 -5.51257,-9.66673 -1.37342,-4.11925 -2.13605,-8.20418 -2.51168,-12.02966 -0.3991,-3.70282 -0.45444,-7.34772 0.2557,-10.9611 0.93807,-4.14303 3.24177,-7.24545 5.26329,-9.44815 2.87635,-3.25462 6.00622,-5.82414 8.5189,-7.69898 0,0 10e-6,0 10e-6,0 7.27417,-4.73103 11.50302,-7.06767 11.94324,-6.48681 z"
           style="fill:#000000;fill-rule:evenodd;stroke:none;stroke-width:1px;stroke-linecap:butt;stroke-linejoin:miter;stroke-opacity:1" />
        <path
           sodipodi:nodetypes="cssssssc"
           inkscape:connector-curvature="0"
           inkscape:original-d="m 419.09588,697.10812 c 0,0 27.2012,-43.628 50.38986,-50.66613 14.50374,-4.40212 31.19875,1.91958 44.75804,8.53923 22.87531,11.16775 46.17123,32.98843 58.39295,53.22791 4.81308,7.97059 -31.47015,-21.01187 -48.31498,-22.7713 -9.01526,-0.94163 -17.60856,5.10981 -26.67698,5.12355 -12.28506,0.0186 -23.90286,-7.59563 -36.16213,-6.8314 -14.56054,0.90769 -42.09034,19.35561 -42.09034,19.35561"
           inkscape:path-effect="#path-effect12128"
           id="path12126"
           d="m 419.09589,697.10811 c -0.79054,-0.57479 4.52555,-9.43632 14.40573,-24.33271 4.0415,-5.36924 9.43173,-11.95004 16.0434,-18.07284 0,0 10e-6,-10e-6 10e-6,-10e-6 2.67931,-2.47887 5.70798,-4.99431 9.11291,-7.25236 2.80297,-1.87131 6.02405,-3.62377 9.67036,-4.82163 7.8879,-2.47218 16.47531,-2.31272 24.92292,-0.31891 0,0 1e-5,0 1e-5,0 7.90504,1.81379 15.45393,4.82586 23.04851,8.46028 12.22754,5.83864 23.72172,13.92001 34.49115,23.77091 5.78938,5.26826 11.41182,11.07111 16.54172,17.45084 3.51135,4.36685 6.71679,8.9105 9.56812,13.64261 0.33736,-0.009 0.81772,1.24359 1.1484,3.77283 0.12662,1.29483 -0.63562,2.72348 -2.29252,4.23762 -1.79186,0.87311 -2.94141,1.16261 -3.41463,0.91462 -1.62158,-0.21788 -2.57909,-0.52949 -2.89255,-0.77024 -0.89524,-0.39169 -1.66774,-0.79416 -2.3341,-1.16406 -2.05312,-1.1265 -3.97384,-2.31308 -5.79143,-3.43942 0,0 -10e-6,-1e-5 -10e-6,-1e-5 -2.26974,-1.4035 -5.09454,-3.17791 -7.28088,-4.5321 l 0,0 c -5.65134,-3.49571 -11.00898,-6.72886 -16.51454,-9.53171 l 0,0 c -2.61258,-1.3279 -5.15112,-2.52215 -7.69819,-3.47818 l 0,0 c -2.16885,-0.79132 -4.14148,-1.43946 -5.98606,-1.63387 l 0,0 c -3.33413,-0.54317 -7.34941,0.68521 -11.50635,1.84404 l 0,0 c -4.481,1.4152 -9.25575,2.88288 -14.68674,2.90585 l 0,0 c -7.22545,-0.18673 -13.82767,-2.42521 -19.20346,-4.23423 l 0,0 c -6.4138,-2.03215 -11.55208,-3.68708 -16.75759,-3.46786 -3.94088,0.0586 -8.17091,1.4738 -11.84705,2.75112 l 0,0 c -5.11931,1.81741 -10.02944,4.06014 -13.81541,5.84287 l 0,0 c -3.69677,1.74205 -9.84831,4.78818 -11.45624,5.55611 l 0,0 c -1.54112,0.73606 -2.75252,1.28344 -3.61495,1.60983 l 0,0 c -0.4507,0.17057 -0.80791,0.28146 -1.06793,0.32875 l 0,0 c 0,0 0,0 0,0 -0.13249,0.024 -0.2402,0.0315 -0.32254,0.0222 l 0,0 c -0.0717,-0.0495 -0.11484,-0.0705 -0.14022,-0.0789 0,0 0,0 0,0 -0.0251,-0.008 -0.0329,-0.004 -0.0334,-0.004 0,0 0,0 0,0 0,0 0,0 0,0 0,0 0,0 0,0 -2e-5,10e-6 -2e-5,10e-6 -2e-5,10e-6 0,0 0,0 2e-5,-2e-5 0,0 0,0 0,0 0,0 0,0 0,0 0,0 0,0 0,0 5.1e-4,-3.8e-4 0.007,-0.006 0.009,-0.0324 0,0 0,0 0,0 0.002,-0.0267 -8.3e-4,-0.0745 -0.019,-0.15964 l 0,0 c 0.0236,-0.0798 0.0731,-0.17637 0.14845,-0.28953 0,0 0,0 0,0 l 0,0 c 0.14747,-0.22177 0.39327,-0.50589 0.73654,-0.84993 l 0,0 c 0.65739,-0.65885 1.66928,-1.5344 3.02932,-2.59967 l 0,0 c 2.38897,-1.87132 6.03838,-4.47245 10.65645,-7.32387 l 0,0 c 3.67179,-2.26908 8.42224,-4.9971 13.74434,-7.37035 l 0,0 c 3.68598,-1.67629 8.33675,-3.5425 13.57767,-4.05777 6.60471,-0.51603 12.85186,0.92197 19.38519,2.80432 5.55358,1.49519 11.58186,3.36074 16.97802,3.15639 l 0,0 c 3.61712,0.009 7.3964,-1.46154 12.03011,-2.93423 4.19809,-1.48833 9.33035,-2.97284 15.13076,-2.56298 l 0,0 c 2.99347,0.31093 5.73231,1.07719 8.23345,1.98717 l 0,0 c 3.02818,1.07508 5.92287,2.35973 8.74723,3.74306 l 0,0 c 5.95889,2.91415 11.62434,6.21281 17.37894,9.69482 l 0,0 c 2.53114,1.52963 4.80611,2.93343 7.32959,4.46494 l 0,0 1e-5,0 0,0 c 1.83476,1.11132 3.61771,2.19991 5.36985,3.14131 0.5888,0.31221 1.0874,0.57706 1.50971,0.75015 0.47897,0.0976 0.31656,0.14226 -0.44309,-0.0242 -0.25046,-0.23493 -1.16092,0.0433 -2.76819,0.79086 -1.50234,1.40899 -2.19234,2.64347 -2.06118,3.75132 0.34992,1.74886 0.3447,2.29677 0.27713,1.61861 -2.60929,-4.31081 -5.56695,-8.47865 -8.82739,-12.52228 -4.76141,-5.90514 -10.0256,-11.36776 -15.46553,-16.41597 -10.16274,-9.37978 -20.73494,-17.07543 -31.89199,-22.65321 -7.23054,-3.60327 -14.04017,-6.56393 -21.00119,-8.34528 0,0 -2e-5,0 -2e-5,0 -7.39512,-1.83744 -14.3989,-2.37852 -20.54343,-0.59181 -2.75057,0.74384 -5.4348,2.0795 -7.96962,3.57028 -3.05763,1.81254 -5.91816,3.95574 -8.54806,6.11743 0,0 -10e-6,10e-6 -10e-6,10e-6 -6.41969,5.26907 -12.06592,11.25463 -16.41812,16.08724 -11.03361,13.868 -17.82116,21.65235 -18.61148,21.07773 z"
           style="fill:#000000;fill-rule:nonzero;stroke:none;stroke-width:1px;stroke-linecap:butt;stroke-linejoin:miter;stroke-opacity:1" />
        <path
           sodipodi:nodetypes="cssc"
           inkscape:connector-curvature="0"
           inkscape:original-d="m 430.5209,701.19186 c 0,0 18.35766,24.34557 43.61664,31.46746 21.60024,6.09028 46.62064,6.17819 63.92622,-7.64834 9.05363,-7.23352 15.27931,-19.79368 15.27931,-19.79368"
           inkscape:path-effect="#path-effect12132"
           id="path12130"
           d="m 430.52092,701.19188 c 0.0342,-0.0262 0.0725,-0.0457 0.11601,-0.0593 0.0417,-0.013 0.0878,-0.0202 0.13811,-0.0218 0.1,-0.003 0.21707,0.016 0.35063,0.0568 l 0,0 0,0 c 0.2635,0.08 0.59428,0.24411 0.98786,0.48502 l 0,0 c 0.76646,0.46912 1.79638,1.24328 3.05742,2.24923 l 0,0 c 2.35376,1.87732 5.75143,4.75902 9.89449,7.92575 l 0,0 c 3.80957,2.90865 8.51882,6.27063 13.8708,9.2838 l 0,0 c 4.86831,2.73288 10.47877,5.33485 16.51357,6.89375 5.53714,1.43795 11.44324,2.59885 17.52152,3.1925 4.93988,0.48245 9.71392,0.56316 14.32555,0.23251 11.83523,-0.8841 21.34149,-4.36856 28.41339,-9.36484 4.76387,-3.2592 8.90061,-8.02809 11.41383,-10.88197 3.24241,-4.12878 5.46792,-6.34863 6.21095,-5.97031 0,0 0,0 0,0 0,0 10e-6,0 10e-6,0 0,0 0,0 0,0 0.008,0.004 0.008,0.004 0.008,0.004 0,0 10e-6,-2e-5 0.008,0.004 0,0 0,0 0,0 0,0 0,0 0,0 0,0 0,0 0,0 0.72192,0.41644 -0.12704,3.3943 -2.29728,8.42699 -1.8258,3.70241 -5.18755,9.39153 -10.6365,14.30798 -7.65635,6.76899 -18.72295,11.94621 -32.29183,13.22111 -5.22483,0.50543 -10.61275,0.49803 -16.11514,-0.0279 -6.78151,-0.64817 -13.23661,-2.03578 -19.18501,-3.83638 -7.1102,-2.14786 -13.29659,-5.45465 -18.4116,-8.93815 l 0,0 c -5.63663,-3.82978 -10.22251,-7.9803 -13.73948,-11.67028 l 0,0 c -3.85239,-4.03839 -6.58332,-7.67682 -8.25639,-10.36907 l 0,0 c -0.88593,-1.42541 -1.48171,-2.59544 -1.80057,-3.46924 l 0,0 c -0.16259,-0.44559 -0.25232,-0.81067 -0.26949,-1.09143 l 0,0 0,-10e-6 c -0.008,-0.14128 0.001,-0.26056 0.0295,-0.35755 0.0141,-0.0487 0.0329,-0.0916 0.0563,-0.12886 0.0243,-0.0387 0.0532,-0.0708 0.0874,-0.097 z"
           style="fill:#000000;fill-rule:evenodd;stroke:none;stroke-width:1px;stroke-linecap:butt;stroke-linejoin:miter;stroke-opacity:1" />
        <path
           sodipodi:nodetypes="ssssssss"
           inkscape:connector-curvature="0"
           inkscape:original-d="m 721.45952,377.58725 c -1.85571,-59.09437 1.42905,-71.47096 -19.58057,-117.11036 -31.956,-69.41831 -127.15081,-122.6784 -205.9794,-128.18622 -62.75766,-4.38492 -150.58009,46.4715 -184.79188,97.55941 -42.78426,63.88904 -56.58709,127.37809 -42.97085,181.38898 13.59622,53.93147 -1.23292,-69.73381 101.18656,-108.55435 82.72634,-31.35616 214.95781,-36.58853 285.85926,18.80307 50.62008,39.54683 68.69501,133.10397 66.27688,56.09947 z"
           inkscape:path-effect="#path-effect12188"
           id="path12186"
           d="m 721.45952,377.58725 c -0.73045,0.0229 -1.33116,-12.92738 -2.4949,-36.7665 -0.35823,-7.31028 -0.85418,-17.20322 -2.18692,-26.57323 0,0 0,-2e-5 0,-2e-5 -1.06003,-7.47112 -2.82865,-15.48083 -5.56503,-23.79544 -3.06791,-9.335 -7.03774,-18.55464 -11.88294,-28.80163 0,0 -1e-5,-3e-5 -1e-5,-3e-5 -7.69715,-16.28732 -19.15633,-32.12157 -34.41768,-47.35819 -14.11833,-14.08095 -30.9235,-27.03499 -50.40845,-38.61682 -17.7408,-10.53819 -37.49259,-19.78541 -58.97637,-26.84721 -18.76047,-6.15891 -39.00382,-10.74807 -59.93628,-12.12057 -16.02498,-1.08754 -32.48414,1.55725 -48.98362,6.2229 -17.54782,4.98935 -34.75558,12.33577 -51.53446,21.51442 -16.16857,8.85528 -31.84069,19.38074 -46.3353,31.70785 -12.52185,10.67297 -24.33574,22.65103 -33.52439,36.44661 -18.55915,27.82618 -34.09253,59.09509 -41.87035,92.77875 -0.22341,0.96787 -0.44025,1.93796 -0.65041,2.91013 -5.93764,27.46693 -6.33833,55.61382 0.2571,81.7375 0.68129,2.70158 1.3512,5.30626 2.1534,7.78102 0.54381,1.50898 0.83165,2.63904 1.24892,3.16661 0,0 3e-5,10e-6 3e-5,10e-6 0.204,0.0889 -0.1086,-0.11194 -0.868,-0.73238 -0.3739,-0.25772 -0.94782,-0.42998 -1.73029,-0.53448 -0.77682,-0.0311 -1.42239,0.0711 -1.95007,0.31667 -1.01704,0.64437 -1.46779,0.91746 -1.30498,0.95538 0.0182,0.0132 0.0965,-0.18638 0.28781,-0.55559 0.54655,-1.15273 0.98932,-2.56598 1.50902,-4.14973 0.71808,-2.23422 1.39924,-4.53773 2.10466,-6.86813 0,0 2e-5,-5e-5 2e-5,-5e-5 1.96564,-6.5013 4.03431,-12.96964 6.42286,-19.37129 6.69935,-17.9904 15.75212,-34.8898 27.66611,-49.46721 7.33437,-8.95601 15.68603,-16.92035 24.81612,-23.66377 10.67985,-7.87969 22.34782,-14.03617 34.37524,-18.55284 23.47576,-8.81457 47.41707,-14.46645 70.54245,-18.08007 27.15871,-4.2521 53.50219,-5.69027 78.59538,-4.74578 27.53012,1.02806 52.99598,4.91466 76.40704,11.82083 25.10181,7.38802 46.50052,18.03809 63.79605,31.78934 6.78535,5.41013 12.64973,11.4742 17.7153,17.49067 5.54201,6.57864 10.35745,13.35301 14.53467,19.77913 4.3539,6.69661 8.24015,13.37086 11.61822,19.44966 0,0 1e-5,2e-5 1e-5,2e-5 2.95258,5.31264 6.49859,12.01785 8.91394,16.49259 1.20679,2.23523 2.32449,4.28181 3.49655,6.296 0.95732,1.64144 1.85392,3.12767 2.85506,4.51039 0.73145,0.96748 1.31168,1.7907 2.02664,2.2628 0.21715,0.12376 0.33386,0.22287 0.35717,0.20407 0,0 0,0 0,0 -0.0545,0.008 -0.0652,0.0194 -0.10422,0.0461 0.0478,0.018 0.13523,-0.13705 0.29419,-0.35649 0,0 1e-5,-10e-6 1e-5,-10e-6 0.21111,-0.34454 0.36581,-0.7913 0.51872,-1.27733 0.5109,-1.66979 0.72419,-3.53615 0.90612,-5.21826 1.45623,-13.77813 0.34579,-21.19622 1.30586,-21.22637 -0.10688,0.003 1.82684,7.32762 1.15115,21.41408 -0.078,1.72048 -0.20916,3.73556 -0.70042,5.75418 -0.13991,0.59149 -0.34495,1.2434 -0.68228,1.90974 0,0 -10e-6,10e-6 -10e-6,10e-6 -0.20564,0.45246 -0.57872,0.95496 -1.17787,1.40754 -0.54398,0.3655 -1.18388,0.53261 -1.85171,0.46925 0,0 -4e-5,0 -4e-5,0 -0.70408,-0.10331 -1.26644,-0.3436 -1.67023,-0.63136 -1.23671,-0.8213 -2.13035,-1.85985 -2.88544,-2.8549 -1.16404,-1.47585 -2.1913,-3.0205 -3.2295,-4.65482 -1.28299,-2.01603 -2.50393,-4.06085 -3.79578,-6.25883 -2.25223,-3.83115 -6.69978,-11.56568 -9.43524,-16.15408 0,0 -10e-6,-2e-5 -10e-6,-2e-5 -3.52732,-5.9164 -7.55187,-12.40884 -11.98579,-18.86035 -4.25937,-6.19639 -9.1116,-12.69583 -14.60664,-18.93077 -5.02717,-5.70081 -10.75245,-11.39188 -17.24571,-16.35567 -16.8297,-12.90884 -37.6017,-22.75859 -62.09128,-29.6422 -22.85628,-6.40888 -47.71393,-9.87021 -74.69626,-10.61152 -24.58584,-0.66802 -50.37038,0.98093 -76.94218,5.35228 -22.63235,3.73024 -45.95285,9.39386 -68.6479,18.07962 -11.25718,4.30901 -22.13782,10.11793 -32.01633,17.49159 -8.45359,6.30286 -16.19817,13.76023 -23.00559,22.13809 -11.0834,13.61095 -19.54121,29.61508 -25.92459,46.80486 -2.26503,6.11206 -4.25032,12.38725 -6.17458,18.79687 1e-5,0 -10e-6,5e-5 -10e-6,5e-5 -0.68773,2.29362 -1.37995,4.65165 -2.13832,7.03302 -0.4977,1.59676 -1.08108,3.3826 -1.93255,5.27099 -0.25375,0.59895 -0.65779,1.35783 -1.26574,2.23421 -0.2428,0.59702 -1.16564,1.42104 -2.81825,2.3368 -0.76596,0.34728 -1.67309,0.50045 -2.70825,0.44918 -1.05379,-0.12571 -1.88954,-0.39491 -2.49835,-0.7901 -1.4402,-1.01884 -2.23784,-1.88116 -2.46065,-2.45612 0,0 -3e-5,-8e-5 -3e-5,-8e-5 -1.27206,-2.09958 -1.92807,-3.99872 -2.34892,-5.46744 -0.92253,-2.8491 -1.65829,-5.66397 -2.35009,-8.409 -7.00885,-27.83977 -6.67305,-57.51858 -0.40929,-86.28557 0.2217,-1.0182 0.45056,-2.03397 0.68646,-3.04716 8.18892,-35.18458 24.24049,-67.51908 43.40087,-96.01885 9.94926,-14.78273 22.3978,-27.39279 35.43869,-38.37939 15.096,-12.74534 31.35185,-23.5737 48.08409,-32.63018 17.3506,-9.40202 35.25518,-16.91606 53.58966,-22.0213 17.20496,-4.81626 34.73426,-7.44121 52.09356,-6.19617 21.83171,1.61549 42.72987,6.52798 61.95635,13.06098 22.02686,7.47562 42.20344,17.19328 60.26479,28.22457 19.83843,12.10901 36.93663,25.69413 51.25566,40.42147 15.49429,15.92015 27.06888,32.61864 34.74321,49.72263 0,0 10e-6,3e-5 10e-6,3e-5 4.68029,10.44509 8.52336,19.99949 11.44092,29.68325 2.61153,8.67877 4.20362,17.00515 5.05709,24.73875 0,0 10e-6,3e-5 10e-6,3e-5 1.06911,9.72292 1.20573,19.6152 1.25248,27.00653 0.15538,23.88604 -0.32553,36.84292 -0.71917,36.85528 z"
           style="fill:#000000;fill-rule:nonzero;stroke:none;stroke-width:100;stroke-linecap:butt;stroke-linejoin:miter;stroke-miterlimit:4;stroke-dasharray:none;stroke-opacity:1" />
        <path
           sodipodi:nodetypes="ssssss"
           inkscape:connector-curvature="0"
           inkscape:original-d="m 373.74502,251.64464 c -19.44624,5.43315 -5.41124,-46.02926 9.48515,-59.20538 55.81976,-49.37357 160.56817,-49.22568 220.5297,-4.55426 16.05644,11.96207 28.27835,63.91434 0,55.78968 -34.25304,-9.84126 -75.51802,-17.3921 -120.93564,-15.93991 -38.26772,1.22359 -62.90514,11.00914 -109.07921,23.90987 z"
           inkscape:path-effect="#path-effect12242"
           id="path12240"
           d="m 373.74502,251.64464 c 0.0199,0.0712 -0.87564,1.0606 -3.324,1.10781 -0.84208,0.0138 -1.91316,-0.14395 -2.98862,-0.71705 0,0 0,0 0,0 -0.84702,-0.46363 -1.65026,-1.15731 -2.30434,-2.0712 -0.63886,-0.88979 -1.1431,-1.91728 -1.51894,-3.05863 -0.80352,-2.43095 -1.11776,-5.11317 -1.09077,-8.21134 0.0131,-3.13223 0.3474,-6.45041 1.00236,-10.11765 1.15772,-6.51483 3.22833,-13.90837 6.69934,-21.74614 1.368,-3.09687 3.00521,-6.33962 5.02316,-9.51103 1.54219,-2.4469 3.43028,-5.00349 5.87571,-7.26704 12.76727,-11.71614 29.56028,-22.0609 50.39713,-29.28433 18.06575,-6.27474 38.38756,-10.04399 60.36335,-10.48153 0,1e-5 2e-5,0 2e-5,0 19.7028,-0.40264 40.55484,1.87416 61.33846,7.80474 18.48265,5.25983 37.05266,13.53544 53.52914,25.78416 0.17631,0.13415 0.35028,0.26981 0.52196,0.40689 2.59992,2.07596 4.66174,4.46787 6.33215,6.86812 2.17353,3.06667 3.95295,6.29622 5.44231,9.55124 3.22655,6.98838 5.41166,14.43486 6.2694,22.05175 0.39789,3.42264 0.47987,7.00135 8.4e-4,10.64834 0,0 -10e-6,3e-5 -10e-6,3e-5 -0.34839,3.03844 -1.31747,6.29647 -3.26216,9.36994 -1.90186,2.87959 -4.76362,5.02084 -8.17454,6.03449 0,0 -3e-5,0 -3e-5,0 -4.23012,1.04779 -8.19612,0.60315 -11.45898,-0.46093 -44.0239,-12.82741 -84.16226,-17.40904 -119.47033,-16.75119 -19.02586,0.34055 -36.62768,3.31661 -50.97389,6.59073 -36.5105,8.33788 -57.66621,15.47314 -58.22872,13.45982 -0.14851,-0.53153 5.05528,-2.53004 14.73953,-5.89359 7.89279,-2.74134 25.64638,-8.79641 42.04072,-13.31432 14.49288,-3.99351 32.41503,-7.66133 52.17556,-8.56128 36.04906,-1.62333 77.34735,2.36302 122.40095,15.12863 2.40026,0.56306 4.59413,0.97504 6.09606,0.39124 0,0 2e-5,0 2e-5,0 0.99458,-0.24054 2.0058,-1.05449 2.6461,-2.03244 0.90348,-1.24833 1.33917,-3.13363 1.68338,-5.27072 -10e-6,0 0,-2e-5 0,-2e-5 0.35385,-2.57685 0.24755,-5.3423 -0.0693,-8.22083 -0.73744,-6.44534 -2.66284,-12.86565 -5.48078,-18.99064 -1.30925,-2.81648 -2.78205,-5.50688 -4.51898,-7.93134 -1.39291,-1.90132 -2.80399,-3.61219 -4.37262,-4.82173 -0.10362,-0.0799 -0.2079,-0.1576 -0.31289,-0.23301 -15.27768,-11.40816 -32.76143,-19.23105 -50.27964,-24.37046 -19.71722,-5.76855 -39.61384,-8.1401 -58.48879,-8.02013 0,0 -2e-5,1e-5 -2e-5,1e-5 -21.05969,0.14542 -40.52993,3.36438 -57.91071,8.96048 -20.03204,6.46316 -36.22363,15.7037 -48.75214,26.36166 -1.92217,1.59986 -3.57382,3.69349 -5.08841,5.83259 -1.93411,2.75773 -3.57979,5.6849 -5.01491,8.53644 -3.64081,7.25353 -6.01054,14.13798 -7.54059,20.26909 -0.85847,3.4525 -1.41077,6.49169 -1.67044,9.38845 -0.24458,2.90172 -0.24297,5.1875 0.22058,7.31932 0.21288,0.97698 0.48299,1.8058 0.86972,2.51877 0.38769,0.71409 0.84774,1.27772 1.36704,1.67578 0,0 0,0 0,0 0.63737,0.50657 1.41037,0.78027 2.06106,0.92066 2.01058,0.43594 3.08746,-0.0438 3.19955,0.35739 z"
           style="fill:#000000;fill-rule:nonzero;stroke:none;stroke-width:1px;stroke-linecap:butt;stroke-linejoin:miter;stroke-opacity:1" />
      </g>
    </g>
  </g>
</svg>
