<?xml version="1.0" encoding="UTF-8" standalone="no"?>
<!-- Created with Inkscape (http://www.inkscape.org/) -->

<svg
   xmlns:dc="http://purl.org/dc/elements/1.1/"
   xmlns:cc="http://creativecommons.org/ns#"
   xmlns:rdf="http://www.w3.org/1999/02/22-rdf-syntax-ns#"
   xmlns:svg="http://www.w3.org/2000/svg"
   xmlns="http://www.w3.org/2000/svg"
   xmlns:sodipodi="http://sodipodi.sourceforge.net/DTD/sodipodi-0.dtd"
   xmlns:inkscape="http://www.inkscape.org/namespaces/inkscape"
   width="319.27582mm"
   height="51.15797mm"
   viewBox="0 0 1131.2923 181.2684"
   id="svg15106"
   version="1.1"
   inkscape:version="0.91 r13725"
   sodipodi:docname="ozerov.svg">
  <defs
     id="defs15108" />
  <sodipodi:namedview
     id="base"
     pagecolor="#ffffff"
     bordercolor="#666666"
     borderopacity="1.0"
     inkscape:pageopacity="0.0"
     inkscape:pageshadow="2"
     inkscape:zoom="0.49497475"
     inkscape:cx="269.98554"
     inkscape:cy="-43.190268"
     inkscape:document-units="px"
     inkscape:current-layer="layer1"
     showgrid="false"
     showborder="false"
     inkscape:window-width="1680"
     inkscape:window-height="969"
     inkscape:window-x="0"
     inkscape:window-y="24"
     inkscape:window-maximized="1"
     fit-margin-top="0"
     fit-margin-left="0"
     fit-margin-right="0"
     fit-margin-bottom="0" />
  <metadata
     id="metadata15111">
    <rdf:RDF>
      <cc:Work
         rdf:about="">
        <dc:format>image/svg+xml</dc:format>
        <dc:type
           rdf:resource="http://purl.org/dc/dcmitype/StillImage" />
        <dc:title></dc:title>
      </cc:Work>
    </rdf:RDF>
  </metadata>
  <g
     inkscape:label="Layer 1"
     inkscape:groupmode="layer"
     id="layer1"
     transform="translate(917.85627,239.96353)">
    <g
       style="font-style:normal;font-variant:normal;font-weight:normal;font-stretch:normal;font-size:40px;line-height:125%;font-family:Montserrat;-inkscape-font-specification:Montserrat;letter-spacing:0px;word-spacing:0px;fill:#000000;fill-opacity:1;stroke:none;stroke-width:1px;stroke-linecap:butt;stroke-linejoin:miter;stroke-opacity:1"
       id="text15654"
       transform="matrix(6.2592681,0,0,6.2592681,2019.9222,899.17369)">
      <path
         d="m -447.62856,-174.71208 q -2.84,-2.96 -7,-2.96 -4.16,0 -7.04,2.96 -2.84,2.96 -2.84,7.2 0,4.2 2.84,7.16 2.88,2.96 7.04,2.96 4.16,0 7,-2.96 2.88,-2.96 2.88,-7.16 0,-4.24 -2.88,-7.2 z m 3.48,17.52 q -4.24,4.12 -10.48,4.12 -6.24,0 -10.48,-4.12 -4.24,-4.16 -4.24,-10.32 0,-6.2 4.24,-10.32 4.24,-4.16 10.48,-4.16 6.24,0 10.48,4.16 4.24,4.12 4.24,10.32 0,6.16 -4.24,10.32 z"
         id="path15659"
         inkscape:connector-curvature="0" />
      <path
         d="m -420.14356,-176.99208 -15.76,0 0,-4.32 22.32,0 0,3.68 -16.24,19.8 0,0.12 16.48,0 0,4.36 -23.08,0 0,-3.64 16.28,-19.88 0,-0.12 z"
         id="path15661"
         inkscape:connector-curvature="0" />
      <path
         d="m -387.75231,-181.31208 0,4.44 -14.92,0 0,7.4 13.4,0 0,4.2 -13.4,0 0,7.48 15.4,0 0,4.44 -20.12,0 0,-27.96 19.64,0 z"
         id="path15663"
         inkscape:connector-curvature="0" />
      <path
         d="m -358.90043,-172.23208 q 0,6.92 -6.04,8.72 l 7.32,10.16 -6,0 -6.68,-9.4 -6.2,0 0,9.4 -4.72,0 0,-27.96 10.4,0 q 6.4,0 9.16,2.16 2.76,2.16 2.76,6.92 z m -11.72,5.2 q 4,0 5.44,-1.24 1.44,-1.24 1.44,-3.96 0,-2.76 -1.48,-3.76 -1.48,-1.04 -5.28,-1.04 l -6,0 0,10 5.88,0 z"
         id="path15665"
         inkscape:connector-curvature="0" />
      <path
         d="m -332.15981,-174.71208 q -2.84,-2.96 -7,-2.96 -4.16,0 -7.04,2.96 -2.84,2.96 -2.84,7.2 0,4.2 2.84,7.16 2.88,2.96 7.04,2.96 4.16,0 7,-2.96 2.88,-2.96 2.88,-7.16 0,-4.24 -2.88,-7.2 z m 3.48,17.52 q -4.24,4.12 -10.48,4.12 -6.24,0 -10.48,-4.12 -4.24,-4.16 -4.24,-10.32 0,-6.2 4.24,-10.32 4.24,-4.16 10.48,-4.16 6.24,0 10.48,4.16 4.24,4.12 4.24,10.32 0,6.16 -4.24,10.32 z"
         id="path15667"
         inkscape:connector-curvature="0" />
      <path
         d="m -306.19481,-153.35208 -5.28,0 -11.24,-27.96 5.28,0 8.6,20.88 8.6,-20.88 5.28,0 -11.24,27.96 z"
         id="path15669"
         inkscape:connector-curvature="0" />
      <path
         d="m -293.72981,-153.91208 q -0.84,-0.88 -0.84,-2.12 0,-1.24 0.84,-2.08 0.88,-0.88 2.12,-0.88 1.24,0 2.12,0.88 0.88,0.84 0.88,2.08 0,1.24 -0.88,2.12 -0.88,0.88 -2.12,0.88 -1.24,0 -2.12,-0.88 z"
         id="path15671"
         inkscape:connector-curvature="0" />
    </g>
  </g>
</svg>
